<svg xmlns="http://www.w3.org/2000/svg" xmlns:xlink="http://www.w3.org/1999/xlink" width="500" zoomAndPan="magnify" viewBox="0 0 375 374.999991" height="500" preserveAspectRatio="xMidYMid meet" version="1.0"><path fill="#3369a5" d="M 195 129.375 L 195.59375 129.519531 C 200 130.640625 204.292969 132.296875 208.332031 134.375 C 208.617188 134.515625 208.898438 134.65625 209.183594 134.796875 C 212.035156 136.210938 214.855469 137.652344 217.546875 139.351562 C 217.957031 139.609375 218.367188 139.855469 218.777344 140.101562 C 221.933594 141.996094 224.960938 144.0625 227.917969 146.25 L 228.863281 146.941406 C 232.027344 149.257812 232.027344 149.257812 233.523438 150.484375 C 234.109375 150.953125 234.71875 151.394531 235.332031 151.828125 L 235.625 152.082031 L 235.625 152.5 L 236.074219 152.640625 C 236.785156 152.972656 237.28125 153.433594 237.839844 153.972656 C 238.660156 154.75 239.492188 155.488281 240.378906 156.199219 C 241.148438 156.820312 241.859375 157.457031 242.546875 158.171875 C 242.910156 158.535156 243.289062 158.871094 243.679688 159.203125 C 244.621094 160.019531 245.5 160.886719 246.378906 161.769531 L 246.882812 162.269531 C 247.230469 162.617188 247.574219 162.964844 247.921875 163.3125 C 248.449219 163.839844 248.976562 164.367188 249.503906 164.894531 L 250.992188 166.382812 C 251.84375 167.234375 252.660156 168.105469 253.445312 169.019531 C 253.84375 169.484375 254.261719 169.9375 254.675781 170.390625 C 255.421875 171.222656 256.140625 172.078125 256.832031 172.957031 C 257.167969 173.386719 257.511719 173.8125 257.855469 174.234375 C 259.378906 176.105469 260.804688 178.03125 262.203125 179.996094 C 262.398438 180.273438 262.597656 180.550781 262.796875 180.828125 C 263.28125 181.5 263.722656 182.171875 264.125 182.894531 C 264.441406 183.445312 264.78125 183.980469 265.117188 184.519531 C 266.910156 187.433594 268.492188 190.351562 269.648438 193.578125 C 269.824219 194.050781 270.03125 194.511719 270.234375 194.972656 C 272.207031 199.941406 272.363281 205.238281 271.625 210.464844 C 270.457031 218.121094 267.371094 224.96875 262.617188 231.054688 C 261.796875 232.074219 260.90625 233.019531 260 233.957031 L 259.589844 234.386719 C 257.617188 236.402344 255.414062 238.203125 253.007812 239.679688 C 252.5 239.988281 252.5 239.988281 252.054688 240.355469 L 251.667969 240.625 L 251.042969 240.625 L 251.042969 241.042969 C 247.476562 243.074219 243.671875 244.632812 239.660156 245.535156 L 239.050781 245.671875 C 232.375 247.136719 224.675781 247.308594 218.078125 245.304688 C 209.292969 242.511719 202.980469 236.777344 196.578125 230.355469 C 196.140625 229.917969 195.703125 229.480469 195.261719 229.039062 L 194.019531 227.796875 C 193.238281 227.015625 192.5 226.207031 191.777344 225.371094 C 191.421875 224.960938 191.058594 224.558594 190.683594 224.167969 L 189.894531 223.332031 C 188.980469 222.367188 188.085938 221.394531 187.214844 220.390625 C 186.730469 219.835938 186.230469 219.292969 185.730469 218.75 C 185.109375 218.078125 184.492188 217.398438 183.894531 216.707031 C 183.046875 215.726562 182.152344 214.785156 181.261719 213.84375 C 180.535156 213.070312 179.820312 212.296875 179.167969 211.457031 L 179.167969 211.042969 C 179.050781 210.996094 178.933594 210.949219 178.816406 210.902344 C 178.175781 210.535156 177.78125 210.066406 177.292969 209.519531 L 176.679688 208.839844 L 176.363281 208.484375 C 175.839844 207.898438 175.308594 207.320312 174.777344 206.746094 L 174.464844 206.402344 C 173.636719 205.511719 172.78125 204.652344 171.917969 203.800781 C 171.527344 203.402344 171.152344 202.992188 170.792969 202.566406 C 169.101562 200.589844 167.191406 198.765625 165.207031 197.082031 C 164.6875 196.601562 164.6875 196.601562 164.375 196.25 L 164.375 195.832031 L 164.007812 195.664062 C 163.535156 195.414062 163.164062 195.136719 162.761719 194.792969 L 162.371094 194.464844 L 162.082031 194.167969 L 162.082031 193.75 L 161.730469 193.703125 C 161.078125 193.484375 160.710938 193.113281 160.207031 192.644531 L 159.675781 192.152344 C 159.355469 191.84375 159.039062 191.535156 158.730469 191.214844 C 158.363281 190.863281 158.050781 190.636719 157.605469 190.402344 C 157.046875 190.097656 156.523438 189.796875 156.042969 189.375 L 156.042969 188.957031 L 155.207031 188.75 L 155.207031 188.332031 L 154.765625 188.28125 C 154.023438 188.085938 153.523438 187.757812 152.917969 187.292969 L 152.917969 186.875 L 152.1875 186.640625 C 151.074219 186.273438 149.984375 185.855469 148.890625 185.429688 C 146.777344 184.625 144.523438 184.578125 142.292969 184.894531 C 138.394531 185.613281 134.867188 187.394531 131.851562 189.957031 C 129.191406 192.453125 127.332031 195.878906 126.25 199.328125 C 125.335938 202.855469 125.507812 206.578125 126.328125 210.105469 C 126.863281 212.019531 127.582031 213.773438 128.503906 215.535156 C 128.75 216.042969 128.75 216.042969 128.75 216.457031 L 129.167969 216.457031 C 129.480469 216.855469 129.480469 216.855469 129.816406 217.371094 L 130.15625 217.882812 C 130.417969 218.332031 130.417969 218.332031 130.417969 218.75 L 131.042969 218.957031 C 131.328125 219.261719 131.328125 219.261719 131.640625 219.660156 C 133.28125 221.589844 135.332031 223.089844 137.5 224.375 C 137.675781 224.488281 137.855469 224.605469 138.035156 224.722656 C 143.34375 228.042969 150.097656 229.695312 156.308594 230.023438 C 156.800781 230.039062 157.292969 230.050781 157.789062 230.058594 L 158.339844 230.066406 C 166.128906 230.15625 173.675781 229.324219 180.699219 225.679688 C 181.25 225.417969 181.25 225.417969 181.875 225.417969 C 181.570312 226.566406 181.011719 227.398438 180.324219 228.347656 L 179.984375 228.820312 C 175.65625 234.78125 170.054688 239.664062 163.324219 242.734375 C 157.9375 245.128906 152.375 246.515625 146.457031 246.667969 L 145.871094 246.683594 C 141.640625 246.746094 137.546875 246.207031 133.488281 245.011719 L 132.769531 244.800781 C 131.628906 244.453125 130.570312 244.074219 129.519531 243.515625 C 129.015625 243.253906 128.492188 243.085938 127.957031 242.902344 C 125.085938 241.820312 122.167969 240.066406 119.792969 238.125 L 119.792969 237.707031 L 119.363281 237.578125 C 117.875 236.882812 116.6875 235.527344 115.652344 234.285156 C 115.210938 233.761719 114.757812 233.324219 114.230469 232.890625 C 113.636719 232.398438 113.296875 231.925781 112.917969 231.25 L 112.445312 230.792969 C 111.800781 230.132812 111.296875 229.445312 110.78125 228.683594 L 110.480469 228.242188 C 106.199219 221.855469 103.746094 214.644531 103.210938 206.980469 C 102.792969 199.808594 104.136719 192.53125 107.28125 186.054688 C 109.800781 181.097656 113.203125 176.273438 117.5 172.707031 L 118.027344 172.246094 C 123.53125 167.484375 130.234375 164.339844 137.351562 162.910156 C 139.957031 162.441406 142.519531 162.207031 145.167969 162.214844 L 145.613281 162.214844 C 152.550781 162.238281 159.402344 163.859375 165.441406 167.304688 C 166.871094 168.140625 168.261719 169 169.582031 170 C 169.84375 170.191406 170.105469 170.386719 170.367188 170.578125 C 172.019531 171.800781 173.628906 173.058594 175.207031 174.375 C 175.441406 174.5625 175.671875 174.75 175.902344 174.9375 L 176.601562 175.507812 L 177.242188 176.027344 L 177.707031 176.457031 L 177.707031 176.875 L 178.082031 177.042969 C 178.546875 177.292969 178.867188 177.554688 179.25 177.914062 L 179.660156 178.300781 L 180.101562 178.722656 L 180.570312 179.167969 C 182.320312 180.839844 184.035156 182.542969 185.742188 184.257812 C 186.28125 184.796875 186.824219 185.339844 187.363281 185.878906 L 188.414062 186.925781 L 188.894531 187.40625 C 189.738281 188.253906 190.546875 189.128906 191.328125 190.03125 C 191.828125 190.601562 192.363281 191.128906 192.902344 191.660156 L 193.570312 192.320312 C 193.917969 192.660156 194.265625 193 194.609375 193.339844 C 194.949219 193.671875 195.285156 194.007812 195.625 194.339844 L 195.941406 194.648438 C 196.191406 194.898438 196.429688 195.15625 196.667969 195.417969 L 196.667969 195.832031 L 197.03125 195.988281 C 197.585938 196.296875 197.902344 196.644531 198.320312 197.121094 L 198.816406 197.6875 L 199.085938 198 C 199.394531 198.355469 199.707031 198.710938 200.019531 199.0625 C 201.234375 200.445312 202.410156 201.847656 203.535156 203.304688 C 204.28125 204.265625 205.0625 205.195312 205.851562 206.121094 C 206.410156 206.773438 206.953125 207.4375 207.488281 208.113281 C 209.179688 210.246094 210.988281 212.277344 212.839844 214.273438 C 213.132812 214.589844 213.417969 214.910156 213.703125 215.230469 C 216.65625 218.519531 220.367188 221.957031 224.644531 223.40625 C 225.925781 223.804688 227.195312 224.128906 228.542969 224.167969 L 229.078125 224.199219 C 232.496094 224.316406 236.085938 223.492188 239.113281 221.914062 C 242.53125 219.933594 245.085938 217.445312 247.105469 214.058594 C 248.765625 211 249.5 207.800781 249.460938 204.328125 C 249.351562 201.136719 247.601562 198.253906 245.96875 195.578125 C 243.382812 191.535156 240.214844 187.835938 236.96875 184.3125 C 236.5625 183.863281 236.160156 183.410156 235.761719 182.953125 C 233.828125 180.734375 231.765625 178.621094 229.6875 176.535156 L 229.226562 176.074219 C 228.382812 175.234375 227.511719 174.425781 226.609375 173.648438 C 226.191406 173.285156 225.800781 172.898438 225.417969 172.5 C 224.761719 171.835938 224.082031 171.214844 223.371094 170.605469 C 222.84375 170.144531 222.328125 169.667969 221.808594 169.191406 C 220.875 168.339844 219.914062 167.53125 218.929688 166.738281 C 218.402344 166.304688 217.875 165.863281 217.355469 165.417969 C 213.089844 161.777344 208.585938 158.191406 203.679688 155.449219 L 203.332031 155.207031 L 203.332031 154.792969 L 202.878906 154.722656 C 202.246094 154.570312 201.796875 154.339844 201.238281 154.011719 C 200.472656 153.582031 199.71875 153.203125 198.90625 152.878906 C 197.851562 152.453125 196.835938 151.976562 195.816406 151.476562 C 189.007812 148.148438 181.371094 145.933594 173.75 145.832031 L 173.328125 145.824219 C 172.289062 145.804688 171.25 145.8125 170.207031 145.832031 L 169.742188 145.839844 C 164.496094 145.949219 158.902344 146.628906 153.972656 148.511719 C 153.402344 148.722656 152.839844 148.898438 152.253906 149.0625 C 151.097656 149.402344 150.042969 149.898438 148.957031 150.417969 C 148.644531 150.5625 148.332031 150.707031 148.019531 150.847656 C 146.121094 151.730469 144.285156 152.652344 142.5 153.75 C 142.101562 153.988281 141.703125 154.226562 141.300781 154.464844 L 140.417969 155 L 140.207031 154.375 C 140.378906 154.023438 140.378906 154.023438 140.652344 153.632812 C 140.757812 153.492188 140.859375 153.347656 140.960938 153.199219 L 141.300781 152.734375 L 141.644531 152.257812 C 142.609375 150.933594 143.632812 149.675781 144.710938 148.453125 C 144.917969 148.21875 145.121094 147.984375 145.320312 147.75 C 147.679688 145.011719 150.261719 142.386719 153.1875 140.257812 C 153.5625 139.984375 153.9375 139.703125 154.304688 139.417969 C 156.0625 138.089844 157.867188 136.902344 159.792969 135.832031 L 160.320312 135.539062 C 166.410156 132.179688 172.90625 129.976562 179.792969 128.957031 L 180.242188 128.886719 C 185.0625 128.117188 190.261719 128.214844 195 129.375 " fill-opacity="1" fill-rule="nonzero"/></svg>